<?xml version="1.0" encoding="utf-8"?>
<!-- Generator: Adobe Illustrator 19.0.0, SVG Export Plug-In . SVG Version: 6.00 Build 0)  -->
<svg version="1.1" id="Layer_1" xmlns="http://www.w3.org/2000/svg" xmlns:xlink="http://www.w3.org/1999/xlink" x="0px" y="0px"
	 width="34px" height="22px" viewBox="0 0 34 22" style="enable-background:new 0 0 34 22;" xml:space="preserve">
<style type="text/css">
	.st0{fill:#E99723;}
	.st1{fill:#FFFFFF;}
	.st2{fill:#DC1D46;}
</style>
<path class="st0" d="M25.1,9.6c-0.1,0.5-0.4,1.1-1,1.1c-0.3,0-0.9-0.5-0.9-1.1c0-0.6,0.4-1,1-1C24.7,8.7,25,9,25.1,9.6z"/>
<path class="st0" d="M29.6,8c0.7,0,1.1,0.3,1.1,0.9c0,0.5-0.3,0.9-0.8,1c-0.6,0.1-1-0.2-1.1-0.9C28.8,8.4,29.1,8.1,29.6,8z"/>
<path class="st0" d="M29.2,11.6c0.2-0.2,0-0.9-2.2-0.4c-0.2,0-0.9,0.5-0.6,0.6c0.7,0.1,1.1,0.6,1.5,0.6C28.4,12.4,28.6,12,29.2,11.6
	z"/>
<path class="st0" d="M33.7,6.6L34,3.1c0,0,0-0.1,0-0.1c0-0.7-0.3-1.4-0.8-1.8c-0.3-0.2-0.7-0.4-1.2-0.4c-0.4,0-0.8,0.1-1,0.2
	l-2.9,1.3c-0.7-0.2-1.3-0.2-2-0.2c-0.9,0-1.8,0.2-2.7,0.4L21,1.4c-0.2-0.1-0.5-0.2-1-0.2c-0.4,0-0.9,0.1-1.2,0.4
	C18.3,2,18,2.6,18,3.4c0,0,0,0.1,0,0.1l0.3,3.4c0,0.1,0,0.2,0,0.2l0.2,0.7c0,0,0,0.1,0,0.1c-0.4-0.2-0.9-0.3-1.5-0.3
	c-1.2,0-3,0.3-3.8,0.4c-0.2-0.1-0.4-0.3-0.5-0.4c-0.2-0.2-0.5-0.4-0.7-0.6C11.1,6.7,10.2,6,9.1,6C8.2,6,7.5,6.5,7,7.2
	c-0.9,1.5-0.8,3.3,0.2,4.4c0,0,0,0.1,0,0.1c0,0.1,0,0.1-0.1,0.2c-1,0.2-3.9,1.1-4.4,2.7c-0.2,0.8,0,1.3,0.2,1.6
	c0.4,0.5,1,0.8,1.9,0.9c-0.5,0.5-1.1,1.3-1.2,2.3c0,0.7,0.2,1.3,0.7,1.8l0,0C4.5,21.4,5.1,22,6,22c0.7,0,1.4-0.2,4.2-1.4
	c2.2-1,4.4-1.4,6.7-1.4c1,0,2,0.1,3.1,0.3c2.9,0.5,4.1,1.2,5.1,1.7c0.2,0.1,0.3,0.2,0.5,0.2c0.7,0.3,1.4,0.5,2.1,0.5
	c1.4,0,2.5-0.7,2.9-1.7l0-0.1c0.2-0.4,0.6-1.5,0.1-2.6c-0.3-0.7-0.9-1.2-1.7-1.6c2.9-1.1,4.9-3.7,4.9-6.7c0-0.7-0.1-1.4-0.3-2.1
	l0.1-0.4C33.7,6.7,33.7,6.6,33.7,6.6z M4.4,15.2c0.1-0.3,0.9-0.7,1.9-1.1c0,0.4-0.1,0.9-0.1,1.2c-0.2,0.1-0.6,0.1-1,0.1
	C4.8,15.4,4.5,15.3,4.4,15.2C4.4,15.2,4.4,15.2,4.4,15.2z M28.9,19.6c-0.1,0.3-0.6,0.5-1.2,0.5c-0.4,0-0.8-0.1-1.3-0.3
	c-1.1-0.6-2.5-1.5-6.1-2.1c-1.1-0.2-2.2-0.3-3.4-0.3c-2.5,0-4.9,0.5-7.5,1.6c-2.2,1-3.1,1.3-3.4,1.3c-0.2,0-0.3-0.1-0.5-0.3
	c-0.4-0.4,0-1.1,0.7-1.8c0.7-0.6,1.8-1.2,1.9-1.7c0.1-0.5,0-2.2,0.4-3.4s0.9-1.9,0.1-2.4C8,10,8,8.9,8.5,8.1
	c0.2-0.2,0.4-0.3,0.6-0.3c0.5,0,1.2,0.5,1.7,0.8c0.7,0.4,1.5,1.3,2.1,1.3c0,0,0.1,0,0.1,0c0.6-0.1,2.7-0.5,3.9-0.5
	c1.2,0,1.3,0.6,1.3,0.6s0.1,0.2,0.3,0.8c0,0.2,0.1,0.4,0.2,0.6l0,0c0,0.1,0.1,0.3,0.2,0.5c0.5,1.1,1.3,2.1,2.3,2.9
	c0.4,0.4,0.9,0.7,1.5,1c2,1.1,4,1.1,5.5,1.7C29.7,18.1,29.1,19.1,28.9,19.6z M32.1,9.2c0,3-2.7,5.4-6,5.4c-1.4,0-2.8-0.4-3.8-1.2
	c-0.9-0.8-1.5-1.7-1.8-2.2c0-0.1-0.1-0.2-0.1-0.3c-0.1-0.2-0.1-0.4-0.2-0.7c-0.1-0.4-0.1-0.7-0.1-1.1c0-0.5,0.1-0.9,0.2-1.3
	l-0.2-1.1l-0.3-3.4c0,0,0-0.3,0.1-0.4c0,0,0.1,0,0.1,0C20.1,3,20.2,3,20.2,3l3.2,1.4c0.8-0.4,1.8-0.6,2.7-0.6c0.7,0,1.5,0.1,2.1,0.3
	l3.5-1.5c0,0,0.1-0.1,0.2-0.1c0,0,0.1,0,0.1,0C32.2,2.7,32.2,3,32.2,3L32,6.4l-0.2,0.9C32,7.9,32.1,8.5,32.1,9.2z"/>
<path class="st0" d="M27.3,11.5"/>
<path class="st1" d="M3.8,11.9c0.6,0.5,2.8,1.9,5,2.3c1,0.2,2.1,0.3,3.1,0.3c2.3,0,4.5-0.5,6.7-1.4c0.2-0.1,0.4-0.2,0.7-0.3
	c-0.6-1-0.7-2.3-0.9-4.8c-0.4-0.6-1.3-0.9-2-1.1c-1-0.2-3.1-0.2-4.2-0.7c-0.8-0.4-2-2.2-1.9-3.2C9.7,3.9,5.9,3.5,5,3
	c0,1.2-0.8,3.1-1.8,3.6C2.4,7,1.1,7.3,0.4,6.6C0.7,7.3,0.9,8,1.3,8.7C1.9,9.9,2.5,10.8,3.8,11.9z"/>
<path class="st2" d="M3.7,12c0.6,0.5,2.8,1.9,5.1,2.3c1,0.2,2.1,0.3,3.1,0.3c2.3,0,4.5-0.5,6.8-1.5c0.2-0.1,0.4-0.2,0.7-0.3
	c-0.6-1-0.7-2.3-0.9-4.9c-0.4-0.6-1.3-0.9-2-1.1c-1-0.2-3.1-0.2-4.2-0.7c-0.8-0.4-2-2.2-1.9-3.3c-0.5,1-4.3,0.5-5.2,0
	C5,4.1,4.2,6,3.2,6.6C2.4,7,1.1,7.2,0.4,6.6C0.7,7.3,0.9,8,1.2,8.7C1.9,10,2.5,10.8,3.7,12z"/>
</svg>
